<svg width="172" height="38" viewBox="0 0 172 38" fill="none" xmlns="http://www.w3.org/2000/svg">
<path d="M48.1453 15.155C48.0769 15.2761 47.9873 15.3827 47.8806 15.4688C47.7755 15.5424 47.6503 15.5793 47.5234 15.5734C47.3769 15.5681 47.234 15.5248 47.1077 15.447C46.9592 15.3627 46.7908 15.2684 46.6037 15.1638C46.3975 15.0507 46.1824 14.9561 45.9608 14.8801C45.6947 14.792 45.4165 14.7493 45.1372 14.754C44.7131 14.7199 44.2909 14.8451 43.9483 15.1073C43.6858 15.3477 43.5421 15.6989 43.5578 16.0618C43.5505 16.2981 43.6354 16.5276 43.7931 16.6982C43.971 16.8818 44.1805 17.0299 44.4105 17.1342C44.6937 17.2674 44.9859 17.3794 45.2843 17.4698C45.6123 17.5717 45.9465 17.6852 46.2883 17.8098C46.6311 17.9356 46.9662 18.0826 47.2923 18.2503C47.6147 18.4152 47.91 18.6333 48.166 18.8952C48.4291 19.1695 48.6386 19.4938 48.7834 19.8503C48.9504 20.2807 49.0305 20.7418 49.0187 21.2058C49.0232 21.7697 48.9235 22.3292 48.7249 22.8539C48.5341 23.3574 48.2433 23.8132 47.8719 24.1924C47.4774 24.5875 47.0082 24.893 46.4942 25.0904C45.8983 25.3166 45.2674 25.4271 44.6329 25.4159C44.2422 25.415 43.8525 25.3741 43.4693 25.2939C43.0779 25.2138 42.6944 25.0986 42.3221 24.9495C41.9607 24.8058 41.612 24.6299 41.28 24.4236C40.9721 24.2333 40.6875 24.005 40.4329 23.7434L41.273 22.366C41.3369 22.2591 41.4265 22.1719 41.5335 22.113C41.6439 22.0496 41.7686 22.0166 41.8949 22.0172C42.0759 22.0213 42.2523 22.0791 42.4031 22.1831C42.5739 22.2933 42.7672 22.4152 42.9827 22.549C43.2199 22.6934 43.4687 22.8159 43.7261 22.9152C44.0444 23.0325 44.3803 23.0884 44.7181 23.0808C45.1453 23.1082 45.5692 22.9836 45.9193 22.7275C46.2247 22.4453 46.3832 22.0299 46.3479 21.6074C46.3589 21.3443 46.2751 21.0862 46.1126 20.8835C45.9403 20.6861 45.7302 20.5288 45.4952 20.4216C45.2139 20.2896 44.9232 20.1821 44.6254 20.099C44.3007 20.0062 43.9671 19.9033 43.6256 19.7896C43.283 19.6756 42.9485 19.5357 42.6255 19.371C42.3019 19.2063 42.0078 18.985 41.7562 18.7172C41.4879 18.4255 41.278 18.0817 41.1385 17.7055C40.9693 17.227 40.8892 16.7197 40.9032 16.2103C40.9038 15.7307 40.9982 15.2561 41.1805 14.815C41.3688 14.3569 41.6464 13.9444 41.9963 13.6033C42.3781 13.2335 42.8255 12.9448 43.3141 12.7533C43.8855 12.5317 44.4923 12.4242 45.1024 12.4351C45.4694 12.4345 45.8361 12.4652 46.1986 12.5267C46.5435 12.5845 46.8821 12.6752 47.211 12.7969C47.5211 12.9115 47.8203 13.0544 48.1058 13.2241C48.373 13.3823 48.6226 13.5709 48.8495 13.7865L48.1453 15.155Z" fill="#080706"/>
<path d="M53.4222 23.6777C53.7169 23.6845 54.0093 23.6238 54.2788 23.5003C54.5575 23.3563 54.8094 23.1618 55.0223 22.9258V21.7214C54.604 21.7138 54.1861 21.7479 53.7743 21.824C53.5059 21.8723 53.2451 21.9583 52.9991 22.0797C52.8384 22.1557 52.7011 22.2771 52.6036 22.43C52.5305 22.5593 52.4927 22.7069 52.4935 22.8566C52.4683 23.0958 52.5565 23.333 52.7299 23.4927C52.9358 23.6297 53.1784 23.6942 53.4222 23.6777ZM56.3263 25.2777C56.14 25.2883 55.9543 25.2539 55.7837 25.1761C55.6372 25.0765 55.5291 24.9266 55.4778 24.7527L55.2985 24.2699C55.0862 24.4564 54.8822 24.6202 54.6867 24.7613C54.4948 24.9 54.2911 25.02 54.0788 25.121C53.8648 25.2212 53.6407 25.2948 53.4098 25.3408C53.1504 25.3912 52.8868 25.4153 52.6226 25.413C52.2663 25.4174 51.9111 25.3641 51.5705 25.2556C51.2744 25.162 51.0004 25.004 50.767 24.7928C50.5429 24.5833 50.3684 24.3238 50.2572 24.033C50.132 23.6989 50.0712 23.3427 50.0776 22.9842C50.0827 22.6506 50.1608 22.3224 50.3059 22.0243C50.49 21.6593 50.7628 21.3505 51.0973 21.1284C51.5637 20.8181 52.0767 20.5898 52.6145 20.4531C53.4017 20.2539 54.211 20.1629 55.0212 20.1818V19.8058C55.0559 19.4052 54.9469 19.0051 54.7153 18.6825C54.4878 18.4418 54.1704 18.3157 53.8463 18.3366C53.5978 18.3292 53.3502 18.3634 53.1123 18.4382C52.9364 18.4995 52.7658 18.5755 52.6025 18.666C52.4526 18.7511 52.3075 18.8271 52.166 18.894C52.0066 18.9656 51.8341 19.0001 51.6601 18.9956C51.5027 19.0006 51.3475 18.9553 51.2155 18.8654C51.0965 18.7814 50.9973 18.6701 50.9261 18.5399L50.4692 17.7188C50.9656 17.2592 51.5433 16.9042 52.1699 16.6729C52.8137 16.441 53.4911 16.3252 54.1726 16.3302C54.6452 16.3229 55.1147 16.4107 55.5554 16.5886C55.9484 16.7486 56.3045 16.994 56.5995 17.3078C56.8891 17.6221 57.1127 17.9957 57.2561 18.4043C57.4121 18.8489 57.4892 19.3191 57.4847 19.7923V25.2777H56.3263Z" fill="#080706"/>
<path d="M63.7489 25.2777H61.4487L58.1694 16.4996H60.2738C60.4343 16.4938 60.592 16.5394 60.7265 16.6299C60.8414 16.7076 60.9288 16.822 60.9756 16.9554L62.1504 20.8921C62.2426 21.2138 62.3308 21.527 62.4152 21.8313C62.4998 22.1357 62.6314 22.7458 62.6314 22.7458C62.6314 22.7458 62.7645 22.1371 62.8511 21.8313C62.9376 21.5255 63.0301 21.2123 63.1284 20.8921L64.352 16.9554C64.3983 16.8225 64.4837 16.7088 64.5966 16.6299C64.7213 16.5415 64.8697 16.4958 65.021 16.4996H67.029L63.7489 25.2777Z" fill="#080706"/>
<path d="M71.5475 18.1757C71.1287 18.1504 70.7189 18.3051 70.4135 18.6032C70.1152 18.9458 69.9272 19.3766 69.8751 19.835H73.0311C73.0314 19.6291 73.0054 19.424 72.9535 19.2254C72.9042 19.0333 72.8185 18.8533 72.7009 18.6963C72.577 18.5354 72.4193 18.4067 72.2398 18.3192C72.0224 18.2178 71.7859 18.1689 71.5475 18.1757ZM71.4985 16.3641C72.0224 16.3576 72.5431 16.4496 73.0359 16.6352C73.4855 16.8055 73.8942 17.0736 74.2349 17.4224C74.5794 17.7818 74.8467 18.2131 75.0193 18.6875C75.2145 19.2304 75.3106 19.8058 75.3016 20.385C75.3036 20.5462 75.2955 20.7074 75.2773 20.8676C75.2672 20.9716 75.2366 21.0724 75.1876 21.1637C75.1476 21.2338 75.0859 21.288 75.012 21.3163C74.9212 21.3473 74.8254 21.3611 74.7296 21.3582H69.8508C69.8732 21.953 70.1023 22.5195 70.4951 22.9535C70.8657 23.2926 71.3475 23.4697 71.8411 23.4488C72.098 23.4544 72.3541 23.4172 72.5997 23.3389C72.795 23.2729 72.9844 23.191 73.1667 23.0932C73.3326 23.0033 73.4847 22.9217 73.6233 22.848C73.7584 22.7756 73.908 22.7379 74.0598 22.7381C74.2396 22.7272 74.4125 22.8136 74.5167 22.9659L75.2509 23.906C75.0075 24.2006 74.7229 24.4558 74.4066 24.6635C74.1147 24.8526 73.8026 25.0058 73.4766 25.1192C73.1664 25.2271 72.8465 25.3034 72.5221 25.3473C72.2207 25.3888 71.9168 25.4109 71.6122 25.4124C71.0436 25.4165 70.4785 25.3149 69.944 25.1119C69.4342 24.9174 68.97 24.6131 68.5817 24.2186C68.1781 23.8005 67.864 23.2988 67.6601 22.7458C67.4228 22.0915 67.3077 21.3965 67.3214 20.6973C67.3183 20.1276 67.4167 19.5625 67.6111 19.0298C67.9873 17.9827 68.7638 17.1434 69.7566 16.71C70.3082 16.4714 70.901 16.3538 71.4985 16.3641Z" fill="#080706"/>
<path d="M83.1145 25.4133C82.7517 25.4203 82.3912 25.3588 82.05 25.2309C81.4597 25.0108 80.9989 24.5232 80.798 23.9066C80.6854 23.5663 80.6302 23.2084 80.635 22.8483V18.3113H79.917C79.6652 18.3219 79.4523 18.1186 79.4419 17.8567C79.4413 17.8363 79.4416 17.8154 79.4436 17.7948V16.7707L80.7896 16.4997L81.2872 14.3578C81.3423 14.0932 81.5833 13.9167 81.8418 13.9515H83.1652V16.5162H85.2206V18.3113H83.1652V22.6707C83.1585 22.8501 83.2086 23.0272 83.3078 23.1745C83.4044 23.3079 83.5591 23.3822 83.7196 23.3731C83.798 23.3748 83.8765 23.3651 83.9521 23.3436C84.0087 23.3265 84.0633 23.3038 84.1154 23.2758C84.1614 23.2502 84.2053 23.2281 84.2457 23.2084C84.2908 23.1874 84.3395 23.1774 84.3888 23.1783C84.4541 23.1751 84.5188 23.1945 84.5723 23.2337C84.6289 23.2829 84.6771 23.3415 84.7152 23.4069L85.4816 24.6514C85.15 24.908 84.7771 25.1016 84.3804 25.223C83.9697 25.3505 83.5431 25.4147 83.1145 25.4133Z" fill="#080706"/>
<path d="M86.6382 25.2777V12.6051H89.1673V17.2698C89.4656 17.0026 89.7992 16.7819 90.1587 16.614C90.5621 16.4375 90.9971 16.3526 91.435 16.3641C91.8566 16.3559 92.2754 16.4407 92.6628 16.614C93.0093 16.7728 93.3175 17.0099 93.5643 17.3078C93.8158 17.618 94.0049 17.978 94.1189 18.3657C94.2475 18.7982 94.3111 19.2484 94.3072 19.7007V25.2777H91.7784V19.6995C91.7994 19.3406 91.6986 18.9859 91.4929 18.6963C91.2823 18.4471 90.9716 18.3139 90.6528 18.3366C90.3811 18.3354 90.1124 18.3987 89.8684 18.5225C89.6132 18.6545 89.3771 18.8224 89.1667 19.0222V25.2777H86.6382Z" fill="#080706"/>
<path d="M99.8534 18.1757C99.4348 18.1504 99.0247 18.3051 98.7194 18.6032C98.421 18.9458 98.2328 19.3763 98.1812 19.835H101.338C101.338 19.6291 101.312 19.424 101.26 19.2254C101.211 19.0333 101.126 18.8536 101.009 18.6963C100.886 18.5354 100.728 18.4067 100.548 18.3192C100.33 18.2176 100.092 18.1684 99.8534 18.1757ZM99.8043 16.3641C100.328 16.3576 100.849 16.4496 101.342 16.6352C101.791 16.8052 102.2 17.0736 102.541 17.4224C102.886 17.7818 103.153 18.2128 103.325 18.6875C103.52 19.2304 103.616 19.8058 103.607 20.385C103.609 20.5462 103.601 20.7074 103.583 20.8676C103.573 20.9716 103.542 21.0724 103.493 21.1637C103.453 21.2338 103.391 21.2878 103.318 21.3163C103.227 21.3473 103.131 21.3611 103.035 21.3582H98.1566C98.1796 21.953 98.4079 22.5195 98.8009 22.9535C99.1712 23.2923 99.6536 23.4697 100.147 23.4488C100.404 23.4544 100.66 23.4172 100.905 23.3389C101.101 23.2729 101.29 23.191 101.473 23.0932C101.638 23.0033 101.791 22.9217 101.929 22.848C102.064 22.7756 102.214 22.7379 102.366 22.7382C102.546 22.7273 102.718 22.8136 102.823 22.9659L103.557 23.906C103.313 24.2006 103.028 24.4561 102.712 24.6635C102.421 24.8526 102.108 25.0058 101.782 25.1192C101.472 25.2271 101.152 25.3034 100.828 25.3473C100.526 25.3888 100.222 25.4109 99.9181 25.4124C99.3491 25.4165 98.7841 25.3149 98.2499 25.1119C97.74 24.9177 97.2753 24.6131 96.8876 24.2186C96.4845 23.8005 96.1704 23.2991 95.9662 22.747C95.7292 22.0924 95.6141 21.3974 95.6275 20.6982C95.6244 20.1284 95.723 19.5634 95.9175 19.0307C96.2937 17.9833 97.0699 17.144 98.0627 16.7109C98.614 16.472 99.2071 16.3541 99.8043 16.3641Z" fill="#080706"/>
<path d="M116.788 21.9904C116.856 21.9913 116.925 22.0045 116.989 22.0299C117.062 22.0602 117.128 22.1062 117.182 22.1651L118.308 23.3945C117.826 24.0545 117.188 24.5754 116.457 24.9071C115.622 25.266 114.725 25.4398 113.821 25.4174C112.965 25.4318 112.114 25.2642 111.322 24.9248C110.611 24.6151 109.972 24.1511 109.448 23.5645C108.925 22.9679 108.524 22.2682 108.268 21.5066C107.987 20.6761 107.849 19.8014 107.857 18.9214C107.847 18.0272 108.007 17.1398 108.328 16.3099C108.627 15.5395 109.074 14.8409 109.643 14.2564C110.221 13.6707 110.909 13.2138 111.663 12.9139C112.492 12.586 113.373 12.4233 114.259 12.4345C114.695 12.4322 115.13 12.4746 115.558 12.5609C115.947 12.6399 116.328 12.7568 116.696 12.9094C117.038 13.0514 117.364 13.2297 117.671 13.4412C117.957 13.6386 118.222 13.8681 118.461 14.125L117.502 15.4596C117.439 15.543 117.366 15.6176 117.285 15.6821C117.181 15.7548 117.057 15.7902 116.932 15.7825C116.832 15.7828 116.735 15.759 116.646 15.7127C116.548 15.6612 116.453 15.6043 116.36 15.5427C116.259 15.4761 116.149 15.4034 116.028 15.3247C115.892 15.2384 115.749 15.1653 115.6 15.107C115.412 15.0333 115.218 14.9762 115.02 14.9367C114.764 14.8872 114.503 14.8636 114.243 14.8669C113.758 14.8604 113.278 14.957 112.831 15.1506C112.412 15.3341 112.038 15.6108 111.734 15.9611C111.417 16.3335 111.174 16.768 111.02 17.2388C110.843 17.78 110.756 18.3492 110.764 18.9214C110.754 19.5106 110.841 20.0969 111.02 20.6564C111.17 21.1248 111.406 21.5588 111.716 21.9338C112 22.2718 112.351 22.541 112.745 22.7231C113.142 22.9043 113.572 22.9965 114.006 22.9933C114.241 22.9948 114.477 22.9815 114.711 22.9544C114.913 22.9305 115.112 22.8852 115.304 22.8192C115.485 22.7552 115.66 22.6719 115.825 22.5705C116.002 22.4597 116.17 22.333 116.325 22.1913C116.391 22.1339 116.465 22.0853 116.544 22.0476C116.62 22.0101 116.704 21.9904 116.788 21.9904Z" fill="#080706"/>
<path d="M119.606 25.2777V12.6051H122.135V17.2698C122.434 17.0026 122.767 16.7819 123.126 16.614C123.53 16.4378 123.965 16.3526 124.403 16.3641C124.825 16.3559 125.243 16.4407 125.631 16.614C125.977 16.7728 126.285 17.0099 126.532 17.3078C126.784 17.618 126.973 17.978 127.087 18.3657C127.215 18.7982 127.279 19.2484 127.275 19.7007V25.2777H124.746V19.6995C124.768 19.3406 124.667 18.9859 124.461 18.6963C124.25 18.4462 123.939 18.3127 123.62 18.3354C123.348 18.3336 123.08 18.3976 122.836 18.5213C122.58 18.653 122.344 18.8209 122.134 19.021V25.2777H119.606Z" fill="#080706"/>
<path d="M131.826 25.2778H129.297V16.4997H131.826V25.2778ZM132.119 14.0953C132.121 14.2986 132.079 14.4995 131.997 14.6836C131.916 14.8654 131.803 15.0292 131.663 15.1662C131.519 15.3065 131.351 15.4184 131.168 15.4968C130.978 15.5787 130.774 15.6202 130.569 15.619C130.369 15.6208 130.172 15.579 129.99 15.4968C129.813 15.4169 129.651 15.305 129.513 15.1662C129.375 15.0292 129.263 14.8651 129.186 14.6836C129.107 14.4983 129.067 14.298 129.068 14.0953C129.066 13.8885 129.107 13.684 129.186 13.4946C129.263 13.3107 129.374 13.1437 129.513 13.0034C129.65 12.8629 129.812 12.751 129.99 12.6735C130.173 12.5933 130.37 12.553 130.569 12.5547C130.774 12.5533 130.978 12.5939 131.168 12.6735C131.537 12.8255 131.833 13.1198 131.997 13.4946C132.079 13.6834 132.121 13.8882 132.119 14.0953Z" fill="#080706"/>
<path d="M136.655 12.6051H134.126V25.2777H136.655V12.6051Z" fill="#080706"/>
<path d="M142.152 23.3987C142.321 23.4005 142.49 23.3819 142.654 23.3436C142.797 23.3094 142.935 23.2567 143.066 23.1871C143.194 23.1173 143.313 23.0322 143.421 22.9329C143.54 22.8233 143.65 22.7046 143.751 22.5776V18.853C143.581 18.6512 143.367 18.4933 143.128 18.3917C142.905 18.3042 142.668 18.2597 142.43 18.2615C142.207 18.2588 141.987 18.3083 141.785 18.4055C141.58 18.5104 141.403 18.6698 141.275 18.8669C141.115 19.1179 141 19.3978 140.937 19.6921C140.849 20.0949 140.808 20.5064 140.815 20.9195C140.809 21.3113 140.841 21.7032 140.913 22.0879C140.961 22.3575 141.053 22.6162 141.186 22.8536C141.285 23.031 141.431 23.1762 141.606 23.2726C141.776 23.3586 141.963 23.4019 142.152 23.3987ZM144.714 25.2777C144.575 25.2828 144.437 25.2447 144.318 25.1679C144.208 25.0889 144.129 24.9716 144.094 24.8373L143.898 24.1691C143.734 24.3515 143.557 24.5209 143.368 24.6767C143.182 24.8296 142.981 24.9619 142.768 25.0703C142.547 25.1826 142.315 25.2677 142.075 25.3246C141.811 25.3856 141.542 25.4153 141.272 25.4133C140.846 25.4171 140.426 25.3122 140.048 25.1083C139.663 24.8971 139.331 24.5963 139.078 24.2292C138.786 23.8023 138.569 23.325 138.437 22.8198C138.274 22.2008 138.196 21.5612 138.205 20.9195C138.199 20.3011 138.288 19.6862 138.466 19.0961C138.623 18.5679 138.873 18.0741 139.204 17.6404C139.514 17.2377 139.905 16.91 140.35 16.6794C140.809 16.4448 141.315 16.3261 141.826 16.3326C142.204 16.322 142.58 16.3898 142.932 16.5312C143.229 16.6608 143.506 16.8367 143.752 17.0521V12.6051H146.281V25.2777H144.714Z" fill="#080706"/>
<path d="M148.303 25.2777V16.4996H149.805C149.911 16.497 150.016 16.5079 150.119 16.5323C150.196 16.5512 150.268 16.5868 150.331 16.6378C150.39 16.6885 150.434 16.7539 150.461 16.8281C150.495 16.9215 150.521 17.0179 150.539 17.1163L150.677 17.9371C150.952 17.481 151.306 17.0818 151.721 16.7607C152.087 16.4799 152.531 16.3285 152.986 16.3291C153.319 16.3117 153.647 16.4133 153.916 16.6166L153.589 18.5469C153.579 18.6444 153.532 18.734 153.459 18.7968C153.381 18.848 153.29 18.8731 153.198 18.8684C153.088 18.8663 152.979 18.8536 152.872 18.8303C152.716 18.8021 152.557 18.7894 152.399 18.792C151.735 18.792 151.213 19.1588 150.832 19.8924V25.2777H148.303Z" fill="#080706"/>
<path d="M158.549 18.1757C158.13 18.1504 157.72 18.3051 157.415 18.6032C157.117 18.9458 156.928 19.3763 156.877 19.835H160.033C160.034 19.6291 160.008 19.424 159.955 19.2254C159.906 19.0333 159.82 18.8533 159.703 18.6963C159.579 18.5354 159.422 18.4067 159.242 18.3192C159.024 18.2178 158.787 18.1686 158.549 18.1757ZM158.5 16.3641C159.024 16.3576 159.545 16.4496 160.037 16.6352C160.487 16.8052 160.896 17.0736 161.236 17.4224C161.581 17.7818 161.848 18.2131 162.021 18.6875C162.216 19.2304 162.312 19.8058 162.303 20.385C162.305 20.5462 162.297 20.7074 162.278 20.8676C162.268 20.9716 162.238 21.0724 162.189 21.1637C162.149 21.2338 162.087 21.288 162.013 21.3163C161.922 21.3473 161.827 21.3611 161.731 21.3582H156.852C156.875 21.953 157.104 22.5195 157.497 22.9535C157.867 23.2926 158.349 23.4697 158.843 23.4488C159.1 23.4544 159.355 23.4172 159.601 23.3389C159.796 23.2729 159.986 23.191 160.168 23.0932C160.334 23.0033 160.486 22.9217 160.625 22.848C160.759 22.7756 160.91 22.7381 161.061 22.7381C161.242 22.7272 161.414 22.8136 161.518 22.9659L162.252 23.906C162.009 24.2006 161.724 24.4561 161.408 24.6635C161.116 24.8526 160.804 25.0058 160.478 25.1192C160.168 25.2271 159.848 25.3034 159.524 25.3473C159.222 25.3888 158.918 25.4109 158.614 25.4124C158.045 25.4165 157.48 25.3149 156.946 25.1119C156.436 24.9177 155.971 24.6131 155.583 24.2186C155.18 23.8002 154.865 23.2985 154.661 22.7458C154.424 22.0915 154.31 21.3965 154.323 20.6973C154.32 20.1276 154.418 19.5625 154.613 19.0298C154.989 17.9827 155.765 17.1434 156.758 16.71C157.31 16.4714 157.903 16.3538 158.5 16.3641Z" fill="#080706"/>
<path d="M163.916 25.2778V16.4997H165.482C165.622 16.4943 165.759 16.5326 165.878 16.6095C165.988 16.6885 166.067 16.8058 166.102 16.9398L166.249 17.4477C166.41 17.2919 166.579 17.1449 166.755 17.0076C166.928 16.8723 167.116 16.7571 167.314 16.6643C167.521 16.5683 167.736 16.4949 167.958 16.4446C168.206 16.3889 168.459 16.3624 168.713 16.3641C169.134 16.3559 169.553 16.4407 169.94 16.614C170.287 16.7728 170.594 17.0099 170.842 17.3078C171.094 17.618 171.282 17.9777 171.396 18.3658C171.525 18.7982 171.588 19.2484 171.584 19.7007V25.2778H169.056V19.6995C169.077 19.3406 168.976 18.9859 168.77 18.6963C168.56 18.4471 168.249 18.3142 167.93 18.3366C167.658 18.3354 167.39 18.3987 167.146 18.5225C166.891 18.6545 166.655 18.8227 166.444 19.0222V25.2778H163.916Z" fill="#080706"/>
<path d="M27.7599 8.52408C24.2044 12.2321 20.8529 14.2432 17.8033 14.4821C15.4574 14.6654 12.9715 13.9406 10.4167 12.3243C8.7171 11.206 7.13657 9.90406 5.70115 8.43982L5.60171 8.3423C7.35172 6.40166 9.56647 4.9766 12.0199 4.21266V4.21089H12.0219H12.0193C11.7571 5.23645 11.707 6.30827 11.872 7.35533C12.1207 9.20464 13.0614 10.8784 14.4901 12.0132C16.4897 13.6342 19.3768 13.2662 20.9389 11.1915C21.0025 11.1067 21.0635 11.0201 21.1215 10.9314C22.146 9.39614 22.5466 7.50411 22.2365 5.66512C22.1832 5.31276 22.1067 4.96481 22.0079 4.62306C23.794 5.33132 25.4451 6.36248 26.8845 7.6691C27.1806 7.93691 27.4736 8.22239 27.7585 8.52142L27.7599 8.52408ZM10.9856 23.4143C10.3699 26.7122 10.2284 30.0868 10.566 33.4274L10.5646 33.4259C9.36057 32.7937 8.23694 32.0091 7.21837 31.0908C4.45679 28.6054 2.59529 25.2168 1.94145 21.4846C1.32795 17.9936 1.89103 14.3902 3.53626 11.2793C4.15901 11.9546 4.91145 12.73 5.70115 13.5411C7.63045 15.5248 9.81747 17.7736 10.8811 19.3742C11.4974 20.3008 11.3053 21.4728 10.9862 23.4155M31.512 9.21554C33.0091 7.38067 33.6724 6.53276 33.5287 6.06963C33.3385 5.64774 32.9794 5.33367 32.5463 5.21052C31.9815 4.98927 31.2092 4.88674 30.8207 5.12332C30.5091 5.39937 30.2251 5.70725 29.9735 6.04282L29.5007 6.59611C29.1995 6.27645 28.8779 5.95885 28.5633 5.67513C26.2685 3.60221 23.4542 2.24757 20.4469 1.76823C19.2292 0.425069 17.6408 -0.198339 16.0777 0.05562C14.7238 0.299268 13.536 1.13451 12.8166 2.3495C9.72307 3.33352 6.94132 5.1625 4.76214 7.64435V7.64258C4.26994 7.48968 3.1903 7.68796 2.51461 8.07214C2.19441 8.20972 1.95182 8.49137 1.85601 8.83725C1.81875 9.05468 1.90363 9.39526 2.74516 10.3914C0.587836 13.9382 -0.341095 18.1421 0.112165 22.3101C0.567666 26.4789 2.50452 30.3222 5.544 33.0889C6.60795 34.0514 7.78957 34.864 9.05802 35.5059C14.9445 38.4559 21.8546 38.2029 27.526 34.8283L27.533 34.8233C27.9941 34.5458 28.1664 33.9433 27.9257 33.4495L27.8577 33.2898C26.9276 31.1271 24.098 24.545 25.674 18.541C26.3329 16.028 28.2339 13.3517 29.8763 11.2516C31.6255 14.0649 32.5023 17.367 32.3891 20.713C32.2849 23.7717 31.2812 26.724 29.5127 29.1735C29.4329 29.2748 29.4133 29.4136 29.4612 29.5344L29.6407 29.9683C29.7197 30.1463 29.9228 30.2241 30.0943 30.1422C30.1422 30.1192 30.1842 30.0853 30.217 30.0432C34.8622 23.9308 35.4182 15.518 31.512 9.21554Z" fill="#DD2927"/>
</svg>
