<?xml version="1.0" encoding="UTF-8" standalone="no"?>
<!DOCTYPE svg PUBLIC "-//W3C//DTD SVG 1.1//EN" "http://www.w3.org/Graphics/SVG/1.1/DTD/svg11.dtd">
<svg width="100%" height="100%" viewBox="0 0 172 38" version="1.1" xmlns="http://www.w3.org/2000/svg" xmlns:xlink="http://www.w3.org/1999/xlink" xml:space="preserve" xmlns:serif="http://www.serif.com/" style="fill-rule:evenodd;clip-rule:evenodd;stroke-linejoin:round;stroke-miterlimit:2;">
    <path d="M48.145,15.155C48.077,15.276 47.987,15.383 47.881,15.469C47.776,15.542 47.65,15.579 47.523,15.573C47.377,15.568 47.234,15.525 47.108,15.447C46.959,15.363 46.791,15.268 46.604,15.164C46.398,15.051 46.182,14.956 45.961,14.88C45.695,14.792 45.417,14.749 45.137,14.754C44.713,14.72 44.291,14.845 43.948,15.107C43.686,15.348 43.542,15.699 43.558,16.062C43.551,16.298 43.635,16.528 43.793,16.698C43.971,16.882 44.181,17.03 44.411,17.134C44.694,17.267 44.986,17.379 45.284,17.47C45.612,17.572 45.947,17.685 46.288,17.81C46.631,17.936 46.966,18.083 47.292,18.25C47.615,18.415 47.91,18.633 48.166,18.895C48.429,19.17 48.639,19.494 48.783,19.85C48.95,20.281 49.031,20.742 49.019,21.206C49.023,21.77 48.923,22.329 48.725,22.854C48.534,23.357 48.243,23.813 47.872,24.192C47.477,24.587 47.008,24.893 46.494,25.09C45.898,25.317 45.267,25.427 44.633,25.416C44.242,25.415 43.853,25.374 43.469,25.294C43.078,25.214 42.694,25.099 42.322,24.95C41.961,24.806 41.612,24.63 41.28,24.424C40.972,24.233 40.688,24.005 40.433,23.743L41.273,22.366C41.337,22.259 41.426,22.172 41.533,22.113C41.644,22.05 41.769,22.017 41.895,22.017C42.076,22.021 42.252,22.079 42.403,22.183C42.574,22.293 42.767,22.415 42.983,22.549C43.22,22.693 43.469,22.816 43.726,22.915C44.044,23.033 44.38,23.088 44.718,23.081C45.145,23.108 45.569,22.984 45.919,22.728C46.225,22.445 46.383,22.03 46.348,21.607C46.359,21.344 46.275,21.086 46.113,20.884C45.94,20.686 45.73,20.529 45.495,20.422C45.214,20.29 44.923,20.182 44.625,20.099C44.301,20.006 43.967,19.903 43.626,19.79C43.283,19.676 42.949,19.536 42.626,19.371C42.302,19.206 42.008,18.985 41.756,18.717C41.488,18.426 41.278,18.082 41.139,17.706C40.969,17.227 40.889,16.72 40.903,16.21C40.904,15.731 40.998,15.256 41.181,14.815C41.369,14.357 41.646,13.944 41.996,13.603C42.378,13.234 42.826,12.945 43.314,12.753C43.886,12.532 44.492,12.424 45.102,12.435C45.469,12.435 45.836,12.465 46.199,12.527C46.544,12.585 46.882,12.675 47.211,12.797C47.521,12.912 47.82,13.054 48.106,13.224C48.373,13.382 48.623,13.571 48.85,13.787L48.145,15.155Z" style="fill:white;fill-rule:nonzero;"/>
    <path d="M53.422,23.678C53.717,23.685 54.009,23.624 54.279,23.5C54.557,23.356 54.809,23.162 55.022,22.926L55.022,21.721C54.604,21.714 54.186,21.748 53.774,21.824C53.506,21.872 53.245,21.958 52.999,22.08C52.838,22.156 52.701,22.277 52.604,22.43C52.531,22.559 52.493,22.707 52.493,22.857C52.468,23.096 52.557,23.333 52.73,23.493C52.936,23.63 53.178,23.694 53.422,23.678ZM56.326,25.278C56.14,25.288 55.954,25.254 55.784,25.176C55.637,25.077 55.529,24.927 55.478,24.753L55.298,24.27C55.086,24.456 54.882,24.62 54.687,24.761C54.495,24.9 54.291,25.02 54.079,25.121C53.865,25.221 53.641,25.295 53.41,25.341C53.15,25.391 52.887,25.415 52.623,25.413C52.266,25.417 51.911,25.364 51.571,25.256C51.274,25.162 51,25.004 50.767,24.793C50.543,24.583 50.368,24.324 50.257,24.033C50.132,23.699 50.071,23.343 50.078,22.984C50.083,22.651 50.161,22.322 50.306,22.024C50.49,21.659 50.763,21.351 51.097,21.128C51.564,20.818 52.077,20.59 52.615,20.453C53.402,20.254 54.211,20.163 55.021,20.182L55.021,19.806C55.056,19.405 54.947,19.005 54.715,18.683C54.488,18.442 54.17,18.316 53.846,18.337C53.598,18.329 53.35,18.363 53.112,18.438C52.936,18.5 52.766,18.576 52.603,18.666C52.453,18.751 52.307,18.827 52.166,18.894C52.007,18.966 51.834,19 51.66,18.996C51.503,19.001 51.347,18.955 51.216,18.865C51.097,18.781 50.997,18.67 50.926,18.54L50.469,17.719C50.966,17.259 51.543,16.904 52.17,16.673C52.814,16.441 53.491,16.325 54.173,16.33C54.645,16.323 55.115,16.411 55.555,16.589C55.948,16.749 56.304,16.994 56.6,17.308C56.889,17.622 57.113,17.996 57.256,18.404C57.412,18.849 57.489,19.319 57.485,19.792L57.485,25.278L56.326,25.278Z" style="fill:white;fill-rule:nonzero;"/>
    <path d="M63.749,25.278L61.449,25.278L58.169,16.5L60.274,16.5C60.434,16.494 60.592,16.539 60.727,16.63C60.841,16.708 60.929,16.822 60.976,16.955L62.15,20.892C62.243,21.214 62.331,21.527 62.415,21.831C62.5,22.136 62.631,22.746 62.631,22.746C62.631,22.746 62.765,22.137 62.851,21.831C62.938,21.526 63.03,21.212 63.128,20.892L64.352,16.955C64.398,16.823 64.484,16.709 64.597,16.63C64.721,16.542 64.87,16.496 65.021,16.5L67.029,16.5L63.749,25.278Z" style="fill:white;fill-rule:nonzero;"/>
    <path d="M71.548,18.176C71.129,18.15 70.719,18.305 70.414,18.603C70.115,18.946 69.927,19.377 69.875,19.835L73.031,19.835C73.031,19.629 73.005,19.424 72.954,19.225C72.904,19.033 72.819,18.853 72.701,18.696C72.577,18.535 72.419,18.407 72.24,18.319C72.022,18.218 71.786,18.169 71.548,18.176ZM71.499,16.364C72.022,16.358 72.543,16.45 73.036,16.635C73.486,16.806 73.894,17.074 74.235,17.422C74.579,17.782 74.847,18.213 75.019,18.688C75.215,19.23 75.311,19.806 75.302,20.385C75.304,20.546 75.296,20.707 75.277,20.868C75.267,20.972 75.237,21.072 75.188,21.164C75.148,21.234 75.086,21.288 75.012,21.316C74.921,21.347 74.825,21.361 74.73,21.358L69.851,21.358C69.873,21.953 70.102,22.52 70.495,22.953C70.866,23.293 71.348,23.47 71.841,23.449C72.098,23.454 72.354,23.417 72.6,23.339C72.795,23.273 72.984,23.191 73.167,23.093C73.333,23.003 73.485,22.922 73.623,22.848C73.758,22.776 73.908,22.738 74.06,22.738C74.24,22.727 74.413,22.814 74.517,22.966L75.251,23.906C75.007,24.201 74.723,24.456 74.407,24.664C74.115,24.853 73.803,25.006 73.477,25.119C73.166,25.227 72.847,25.303 72.522,25.347C72.221,25.389 71.917,25.411 71.612,25.412C71.044,25.417 70.479,25.315 69.944,25.112C69.434,24.917 68.97,24.613 68.582,24.219C68.178,23.801 67.864,23.299 67.66,22.746C67.423,22.092 67.308,21.397 67.321,20.697C67.318,20.128 67.417,19.563 67.611,19.03C67.987,17.983 68.764,17.143 69.757,16.71C70.308,16.471 70.901,16.354 71.499,16.364Z" style="fill:white;fill-rule:nonzero;"/>
    <path d="M83.115,25.413C82.752,25.42 82.391,25.359 82.05,25.231C81.46,25.011 80.999,24.523 80.798,23.907C80.685,23.566 80.63,23.208 80.635,22.848L80.635,18.311L79.917,18.311C79.665,18.322 79.452,18.119 79.442,17.857C79.441,17.836 79.442,17.815 79.444,17.795L79.444,16.771L80.79,16.5L81.287,14.358C81.342,14.093 81.583,13.917 81.842,13.951L83.165,13.951L83.165,16.516L85.221,16.516L85.221,18.311L83.165,18.311L83.165,22.671C83.159,22.85 83.209,23.027 83.308,23.174C83.404,23.308 83.559,23.382 83.72,23.373C83.798,23.375 83.876,23.365 83.952,23.344C84.009,23.327 84.063,23.304 84.115,23.276C84.161,23.25 84.205,23.228 84.246,23.208C84.291,23.187 84.34,23.177 84.389,23.178C84.454,23.175 84.519,23.195 84.572,23.234C84.629,23.283 84.677,23.342 84.715,23.407L85.482,24.651C85.15,24.908 84.777,25.102 84.38,25.223C83.97,25.351 83.543,25.415 83.115,25.413Z" style="fill:white;fill-rule:nonzero;"/>
    <path d="M86.638,25.278L86.638,12.605L89.167,12.605L89.167,17.27C89.466,17.003 89.799,16.782 90.159,16.614C90.562,16.438 90.997,16.353 91.435,16.364C91.857,16.356 92.275,16.441 92.663,16.614C93.009,16.773 93.318,17.01 93.564,17.308C93.816,17.618 94.005,17.978 94.119,18.366C94.248,18.798 94.311,19.248 94.307,19.701L94.307,25.278L91.778,25.278L91.778,19.7C91.799,19.341 91.699,18.986 91.493,18.696C91.282,18.447 90.972,18.314 90.653,18.337C90.381,18.335 90.112,18.399 89.868,18.523C89.613,18.655 89.377,18.822 89.167,19.022L89.167,25.278L86.638,25.278Z" style="fill:white;fill-rule:nonzero;"/>
    <path d="M99.853,18.176C99.435,18.15 99.025,18.305 98.719,18.603C98.421,18.946 98.233,19.376 98.181,19.835L101.338,19.835C101.338,19.629 101.312,19.424 101.26,19.225C101.211,19.033 101.126,18.854 101.009,18.696C100.886,18.535 100.728,18.407 100.548,18.319C100.33,18.218 100.092,18.168 99.853,18.176ZM99.804,16.364C100.328,16.358 100.849,16.45 101.342,16.635C101.791,16.805 102.2,17.074 102.541,17.422C102.886,17.782 103.153,18.213 103.325,18.688C103.52,19.23 103.616,19.806 103.607,20.385C103.609,20.546 103.601,20.707 103.583,20.868C103.573,20.972 103.542,21.072 103.493,21.164C103.453,21.234 103.391,21.288 103.318,21.316C103.227,21.347 103.131,21.361 103.035,21.358L98.157,21.358C98.18,21.953 98.408,22.52 98.801,22.953C99.171,23.292 99.654,23.47 100.147,23.449C100.404,23.454 100.66,23.417 100.905,23.339C101.101,23.273 101.29,23.191 101.473,23.093C101.638,23.003 101.791,22.922 101.929,22.848C102.064,22.776 102.214,22.738 102.366,22.738C102.546,22.727 102.718,22.814 102.823,22.966L103.557,23.906C103.313,24.201 103.028,24.456 102.712,24.664C102.421,24.853 102.108,25.006 101.782,25.119C101.472,25.227 101.152,25.303 100.828,25.347C100.526,25.389 100.222,25.411 99.918,25.412C99.349,25.417 98.784,25.315 98.25,25.112C97.74,24.918 97.275,24.613 96.888,24.219C96.485,23.801 96.17,23.299 95.966,22.747C95.729,22.092 95.614,21.397 95.628,20.698C95.624,20.128 95.723,19.563 95.918,19.031C96.294,17.983 97.07,17.144 98.063,16.711C98.614,16.472 99.207,16.354 99.804,16.364Z" style="fill:white;fill-rule:nonzero;"/>
    <path d="M116.788,21.99C116.856,21.991 116.925,22.005 116.989,22.03C117.062,22.06 117.128,22.106 117.182,22.165L118.308,23.395C117.826,24.055 117.188,24.575 116.457,24.907C115.622,25.266 114.725,25.44 113.821,25.417C112.965,25.432 112.114,25.264 111.322,24.925C110.611,24.615 109.972,24.151 109.448,23.565C108.925,22.968 108.524,22.268 108.268,21.507C107.987,20.676 107.849,19.801 107.857,18.921C107.847,18.027 108.007,17.14 108.328,16.31C108.627,15.54 109.074,14.841 109.643,14.256C110.221,13.671 110.909,13.214 111.663,12.914C112.492,12.586 113.373,12.423 114.259,12.435C114.695,12.432 115.13,12.475 115.558,12.561C115.947,12.64 116.328,12.757 116.696,12.909C117.038,13.051 117.364,13.23 117.671,13.441C117.957,13.639 118.222,13.868 118.461,14.125L117.502,15.46C117.439,15.543 117.366,15.618 117.285,15.682C117.181,15.755 117.057,15.79 116.932,15.783C116.832,15.783 116.735,15.759 116.646,15.713C116.548,15.661 116.453,15.604 116.36,15.543C116.259,15.476 116.149,15.403 116.028,15.325C115.892,15.238 115.749,15.165 115.6,15.107C115.412,15.033 115.218,14.976 115.02,14.937C114.764,14.887 114.503,14.864 114.243,14.867C113.758,14.86 113.278,14.957 112.831,15.151C112.412,15.334 112.038,15.611 111.734,15.961C111.417,16.334 111.174,16.768 111.02,17.239C110.843,17.78 110.756,18.349 110.764,18.921C110.754,19.511 110.841,20.097 111.02,20.656C111.17,21.125 111.406,21.559 111.716,21.934C112,22.272 112.351,22.541 112.745,22.723C113.142,22.904 113.572,22.997 114.006,22.993C114.241,22.995 114.477,22.982 114.711,22.954C114.913,22.93 115.112,22.885 115.304,22.819C115.485,22.755 115.66,22.672 115.825,22.571C116.002,22.46 116.17,22.333 116.325,22.191C116.391,22.134 116.465,22.085 116.544,22.048C116.62,22.01 116.704,21.99 116.788,21.99Z" style="fill:white;fill-rule:nonzero;"/>
    <path d="M119.606,25.278L119.606,12.605L122.135,12.605L122.135,17.27C122.434,17.003 122.767,16.782 123.126,16.614C123.53,16.438 123.965,16.353 124.403,16.364C124.825,16.356 125.243,16.441 125.631,16.614C125.977,16.773 126.285,17.01 126.532,17.308C126.784,17.618 126.973,17.978 127.087,18.366C127.215,18.798 127.279,19.248 127.275,19.701L127.275,25.278L124.746,25.278L124.746,19.7C124.768,19.341 124.667,18.986 124.461,18.696C124.25,18.446 123.939,18.313 123.62,18.335C123.348,18.334 123.08,18.398 122.836,18.521C122.58,18.653 122.344,18.821 122.134,19.021L122.134,25.278L119.606,25.278Z" style="fill:white;fill-rule:nonzero;"/>
    <path d="M131.826,25.278L129.297,25.278L129.297,16.5L131.826,16.5L131.826,25.278ZM132.119,14.095C132.121,14.299 132.079,14.499 131.997,14.684C131.916,14.865 131.803,15.029 131.663,15.166C131.519,15.307 131.351,15.418 131.168,15.497C130.978,15.579 130.774,15.62 130.569,15.619C130.369,15.621 130.172,15.579 129.99,15.497C129.813,15.417 129.651,15.305 129.513,15.166C129.375,15.029 129.263,14.865 129.186,14.684C129.107,14.498 129.067,14.298 129.068,14.095C129.066,13.889 129.107,13.684 129.186,13.495C129.263,13.311 129.374,13.144 129.513,13.003C129.65,12.863 129.812,12.751 129.99,12.674C130.173,12.593 130.37,12.553 130.569,12.555C130.774,12.553 130.978,12.594 131.168,12.674C131.537,12.826 131.833,13.12 131.997,13.495C132.079,13.683 132.121,13.888 132.119,14.095Z" style="fill:white;fill-rule:nonzero;"/>
    <rect x="134.126" y="12.605" width="2.529" height="12.673" style="fill:white;fill-rule:nonzero;"/>
    <path d="M142.152,23.399C142.321,23.401 142.49,23.382 142.654,23.344C142.797,23.309 142.935,23.257 143.066,23.187C143.194,23.117 143.313,23.032 143.421,22.933C143.54,22.823 143.65,22.705 143.751,22.578L143.751,18.853C143.581,18.651 143.367,18.493 143.128,18.392C142.905,18.304 142.668,18.26 142.43,18.262C142.207,18.259 141.987,18.308 141.785,18.406C141.58,18.51 141.403,18.67 141.275,18.867C141.115,19.118 141,19.398 140.937,19.692C140.849,20.095 140.808,20.506 140.815,20.92C140.809,21.311 140.841,21.703 140.913,22.088C140.961,22.358 141.053,22.616 141.186,22.854C141.285,23.031 141.431,23.176 141.606,23.273C141.776,23.359 141.963,23.402 142.152,23.399ZM144.714,25.278C144.575,25.283 144.437,25.245 144.318,25.168C144.208,25.089 144.129,24.972 144.094,24.837L143.898,24.169C143.734,24.352 143.557,24.521 143.368,24.677C143.182,24.83 142.981,24.962 142.768,25.07C142.547,25.183 142.315,25.268 142.075,25.325C141.811,25.386 141.542,25.415 141.272,25.413C140.846,25.417 140.426,25.312 140.048,25.108C139.663,24.897 139.331,24.596 139.078,24.229C138.786,23.802 138.569,23.325 138.437,22.82C138.274,22.201 138.196,21.561 138.205,20.92C138.199,20.301 138.288,19.686 138.466,19.096C138.623,18.568 138.873,18.074 139.204,17.64C139.514,17.238 139.905,16.91 140.35,16.679C140.809,16.445 141.315,16.326 141.826,16.333C142.204,16.322 142.58,16.39 142.932,16.531C143.229,16.661 143.506,16.837 143.752,17.052L143.752,12.605L146.281,12.605L146.281,25.278L144.714,25.278Z" style="fill:white;fill-rule:nonzero;"/>
    <path d="M148.303,25.278L148.303,16.5L149.805,16.5C149.911,16.497 150.016,16.508 150.119,16.532C150.196,16.551 150.268,16.587 150.331,16.638C150.39,16.689 150.434,16.754 150.461,16.828C150.495,16.922 150.521,17.018 150.539,17.116L150.677,17.937C150.952,17.481 151.306,17.082 151.721,16.761C152.087,16.48 152.531,16.328 152.986,16.329C153.319,16.312 153.647,16.413 153.916,16.617L153.589,18.547C153.579,18.644 153.532,18.734 153.459,18.797C153.381,18.848 153.29,18.873 153.198,18.868C153.088,18.866 152.979,18.854 152.872,18.83C152.716,18.802 152.557,18.789 152.399,18.792C151.735,18.792 151.213,19.159 150.832,19.892L150.832,25.278L148.303,25.278Z" style="fill:white;fill-rule:nonzero;"/>
    <path d="M158.549,18.176C158.13,18.15 157.72,18.305 157.415,18.603C157.117,18.946 156.928,19.376 156.877,19.835L160.033,19.835C160.034,19.629 160.008,19.424 159.955,19.225C159.906,19.033 159.82,18.853 159.703,18.696C159.579,18.535 159.422,18.407 159.242,18.319C159.024,18.218 158.787,18.169 158.549,18.176ZM158.5,16.364C159.024,16.358 159.545,16.45 160.037,16.635C160.487,16.805 160.896,17.074 161.236,17.422C161.581,17.782 161.848,18.213 162.021,18.688C162.216,19.23 162.312,19.806 162.303,20.385C162.305,20.546 162.297,20.707 162.278,20.868C162.268,20.972 162.238,21.072 162.189,21.164C162.149,21.234 162.087,21.288 162.013,21.316C161.922,21.347 161.827,21.361 161.731,21.358L156.852,21.358C156.875,21.953 157.104,22.52 157.497,22.953C157.867,23.293 158.349,23.47 158.843,23.449C159.1,23.454 159.355,23.417 159.601,23.339C159.796,23.273 159.986,23.191 160.168,23.093C160.334,23.003 160.486,22.922 160.625,22.848C160.759,22.776 160.91,22.738 161.061,22.738C161.242,22.727 161.414,22.814 161.518,22.966L162.252,23.906C162.009,24.201 161.724,24.456 161.408,24.664C161.116,24.853 160.804,25.006 160.478,25.119C160.168,25.227 159.848,25.303 159.524,25.347C159.222,25.389 158.918,25.411 158.614,25.412C158.045,25.417 157.48,25.315 156.946,25.112C156.436,24.918 155.971,24.613 155.583,24.219C155.18,23.8 154.865,23.299 154.661,22.746C154.424,22.092 154.31,21.397 154.323,20.697C154.32,20.128 154.418,19.563 154.613,19.03C154.989,17.983 155.765,17.143 156.758,16.71C157.31,16.471 157.903,16.354 158.5,16.364Z" style="fill:white;fill-rule:nonzero;"/>
    <path d="M163.916,25.278L163.916,16.5L165.482,16.5C165.622,16.494 165.759,16.533 165.878,16.61C165.988,16.689 166.067,16.806 166.102,16.94L166.249,17.448C166.41,17.292 166.579,17.145 166.755,17.008C166.928,16.872 167.116,16.757 167.314,16.664C167.521,16.568 167.736,16.495 167.958,16.445C168.206,16.389 168.459,16.362 168.713,16.364C169.134,16.356 169.553,16.441 169.94,16.614C170.287,16.773 170.594,17.01 170.842,17.308C171.094,17.618 171.282,17.978 171.396,18.366C171.525,18.798 171.588,19.248 171.584,19.701L171.584,25.278L169.056,25.278L169.056,19.7C169.077,19.341 168.976,18.986 168.77,18.696C168.56,18.447 168.249,18.314 167.93,18.337C167.658,18.335 167.39,18.399 167.146,18.523C166.891,18.655 166.655,18.823 166.444,19.022L166.444,25.278L163.916,25.278Z" style="fill:white;fill-rule:nonzero;"/>
    <path d="M27.76,8.524C24.204,12.232 20.853,14.243 17.803,14.482C15.457,14.665 12.972,13.941 10.417,12.324C8.717,11.206 7.137,9.904 5.701,8.44L5.602,8.342C7.352,6.402 9.566,4.977 12.02,4.213L12.02,4.211L12.022,4.211L12.019,4.211C11.757,5.236 11.707,6.308 11.872,7.355C12.121,9.205 13.061,10.878 14.49,12.013C16.49,13.634 19.377,13.266 20.939,11.192C21.003,11.107 21.064,11.02 21.122,10.931C22.146,9.396 22.547,7.504 22.237,5.665C22.183,5.313 22.107,4.965 22.008,4.623C23.794,5.331 25.445,6.362 26.885,7.669C27.181,7.937 27.474,8.222 27.759,8.521L27.76,8.524ZM10.986,23.414C10.37,26.712 10.228,30.087 10.566,33.427L10.565,33.426C9.361,32.794 8.237,32.009 7.218,31.091C4.457,28.605 2.595,25.217 1.941,21.485C1.328,17.994 1.891,14.39 3.536,11.279C4.159,11.955 4.911,12.73 5.701,13.541C7.63,15.525 9.817,17.774 10.881,19.374C11.497,20.301 11.305,21.473 10.986,23.416M31.512,9.216C33.009,7.381 33.672,6.533 33.529,6.07C33.339,5.648 32.979,5.334 32.546,5.211C31.982,4.989 31.209,4.887 30.821,5.123C30.509,5.399 30.225,5.707 29.974,6.043L29.501,6.596C29.2,6.276 28.878,5.959 28.563,5.675C26.269,3.602 23.454,2.248 20.447,1.768C19.229,0.425 17.641,-0.198 16.078,0.056C14.724,0.299 13.536,1.135 12.817,2.35C9.723,3.334 6.941,5.162 4.762,7.644L4.762,7.643C4.27,7.49 3.19,7.688 2.515,8.072C2.194,8.21 1.952,8.491 1.856,8.837C1.819,9.055 1.904,9.395 2.745,10.391C0.588,13.938 -0.341,18.142 0.112,22.31C0.568,26.479 2.505,30.322 5.544,33.089C6.608,34.051 7.79,34.864 9.058,35.506C14.945,38.456 21.855,38.203 27.526,34.828L27.533,34.823C27.994,34.546 28.166,33.943 27.926,33.45L27.858,33.29C26.928,31.127 24.098,24.545 25.674,18.541C26.333,16.028 28.234,13.352 29.876,11.252C31.625,14.065 32.502,17.367 32.389,20.713C32.285,23.772 31.281,26.724 29.513,29.174C29.433,29.275 29.413,29.414 29.461,29.534L29.641,29.968C29.72,30.146 29.923,30.224 30.094,30.142C30.142,30.119 30.184,30.085 30.217,30.043C34.862,23.931 35.418,15.518 31.512,9.216Z" style="fill:white;fill-rule:nonzero;"/>
</svg>
