<?xml version="1.0" encoding="UTF-8" standalone="no"?><!DOCTYPE svg PUBLIC "-//W3C//DTD SVG 1.1//EN" "http://www.w3.org/Graphics/SVG/1.1/DTD/svg11.dtd"><svg width="100%" height="100%" viewBox="0 0 682 201" version="1.1" xmlns="http://www.w3.org/2000/svg" xmlns:xlink="http://www.w3.org/1999/xlink" xml:space="preserve" xmlns:serif="http://www.serif.com/" style="fill-rule:evenodd;clip-rule:evenodd;stroke-linejoin:round;stroke-miterlimit:2;"><rect id="Artboard5" x="0" y="0.142" width="682" height="200" style="fill:none;"/><g><path d="M198.612,87.852c-0.244,0.411 -0.564,0.773 -0.945,1.065c-0.375,0.25 -0.822,0.375 -1.275,0.355c-0.523,-0.018 -1.033,-0.165 -1.484,-0.429c-0.53,-0.286 -1.131,-0.606 -1.799,-0.961c-0.736,-0.384 -1.504,-0.705 -2.295,-0.963c-0.95,-0.299 -1.943,-0.444 -2.94,-0.428c-1.514,-0.116 -3.021,0.309 -4.244,1.199c-0.937,0.816 -1.45,2.008 -1.394,3.24c-0.026,0.802 0.277,1.581 0.84,2.16c0.635,0.623 1.383,1.126 2.204,1.48c1.011,0.452 2.054,0.832 3.119,1.139c1.171,0.346 2.364,0.731 3.584,1.154c1.224,0.427 2.42,0.926 3.584,1.495c1.151,0.56 2.205,1.3 3.119,2.189c0.939,0.931 1.687,2.032 2.204,3.242c0.596,1.461 0.882,3.026 0.84,4.601c0.016,1.914 -0.34,3.813 -1.049,5.594c-0.681,1.709 -1.719,3.256 -3.045,4.543c-1.408,1.341 -3.083,2.378 -4.918,3.048c-2.127,0.768 -4.379,1.143 -6.644,1.105c-1.395,-0.003 -2.786,-0.142 -4.154,-0.414c-1.397,-0.272 -2.766,-0.663 -4.095,-1.169c-1.29,-0.488 -2.535,-1.085 -3.72,-1.785c-1.099,-0.646 -2.115,-1.421 -3.024,-2.309l2.999,-4.675c0.228,-0.363 0.548,-0.659 0.93,-0.859c0.394,-0.215 0.839,-0.327 1.29,-0.325c0.646,0.014 1.276,0.21 1.814,0.563c0.61,0.374 1.3,0.788 2.069,1.242c0.847,0.49 1.735,0.906 2.654,1.243c1.136,0.398 2.335,0.588 3.541,0.562c1.525,0.093 3.038,-0.33 4.288,-1.199c1.09,-0.958 1.656,-2.368 1.53,-3.802c0.039,-0.893 -0.26,-1.769 -0.84,-2.457c-0.615,-0.67 -1.365,-1.204 -2.204,-1.568c-1.004,-0.448 -2.042,-0.813 -3.105,-1.095c-1.159,-0.315 -2.35,-0.664 -3.569,-1.05c-1.223,-0.387 -2.417,-0.862 -3.57,-1.421c-1.155,-0.559 -2.205,-1.31 -3.103,-2.219c-0.958,-0.99 -1.707,-2.157 -2.205,-3.434c-0.604,-1.624 -0.89,-3.346 -0.84,-5.075c0.002,-1.628 0.339,-3.239 0.99,-4.736c0.672,-1.555 1.663,-2.955 2.912,-4.113c1.363,-1.255 2.96,-2.235 4.704,-2.885c2.04,-0.752 4.206,-1.117 6.384,-1.08c1.31,-0.002 2.619,0.102 3.913,0.311c1.231,0.196 2.44,0.504 3.614,0.917c1.107,0.389 2.175,0.874 3.194,1.45c0.954,0.537 1.845,1.177 2.655,1.909l-2.514,4.645Z" style="fill:#080706;fill-rule:nonzero;"/><path d="M217.448,116.78c1.052,0.023 2.096,-0.183 3.058,-0.602c0.995,-0.489 1.894,-1.149 2.654,-1.95l0,-4.088c-1.493,-0.026 -2.985,0.09 -4.455,0.348c-0.958,0.164 -1.889,0.456 -2.767,0.868c-0.574,0.258 -1.064,0.67 -1.412,1.189c-0.261,0.439 -0.396,0.94 -0.393,1.448c-0.09,0.812 0.225,1.617 0.844,2.159c0.735,0.465 1.601,0.684 2.471,0.628m10.367,5.431c-0.665,0.036 -1.328,-0.081 -1.937,-0.345c-0.523,-0.338 -0.909,-0.847 -1.092,-1.437l-0.64,-1.639c-0.758,0.633 -1.486,1.189 -2.184,1.668c-0.685,0.471 -1.412,0.878 -2.17,1.221c-0.764,0.34 -1.564,0.59 -2.388,0.746c-0.926,0.171 -1.867,0.253 -2.81,0.245c-1.272,0.015 -2.54,-0.166 -3.756,-0.534c-1.057,-0.318 -2.035,-0.854 -2.868,-1.571c-0.8,-0.711 -1.423,-1.592 -1.82,-2.579c-0.447,-1.134 -0.664,-2.343 -0.641,-3.56c0.018,-1.132 0.297,-2.246 0.815,-3.258c0.657,-1.239 1.631,-2.287 2.825,-3.041c1.665,-1.053 3.496,-1.828 5.416,-2.292c2.81,-0.676 5.699,-0.985 8.591,-0.921l-0,-1.276c0.124,-1.36 -0.265,-2.718 -1.092,-3.813c-0.812,-0.817 -1.945,-1.245 -3.102,-1.174c-0.887,-0.025 -1.771,0.091 -2.62,0.345c-0.628,0.208 -1.237,0.466 -1.82,0.773c-0.535,0.289 -1.053,0.547 -1.558,0.774c-0.569,0.243 -1.185,0.36 -1.806,0.345c-0.562,0.017 -1.116,-0.137 -1.587,-0.442c-0.425,-0.285 -0.779,-0.663 -1.033,-1.105l-1.631,-2.787c1.772,-1.56 3.834,-2.765 6.071,-3.55c2.298,-0.787 4.716,-1.18 7.149,-1.163c1.687,-0.025 3.363,0.273 4.936,0.877c1.403,0.543 2.674,1.376 3.727,2.441c1.034,1.067 1.832,2.335 2.344,3.722c0.557,1.509 0.832,3.105 0.816,4.711l-0,18.619l-4.135,-0Z" style="fill:#080706;fill-rule:nonzero;"/><path d="M254.312,122.211l-8.211,-0l-11.706,-29.795l7.512,0c0.573,-0.02 1.136,0.135 1.616,0.442c0.41,0.264 0.722,0.652 0.889,1.105l4.194,13.362c0.329,1.092 0.644,2.155 0.945,3.188c0.302,1.033 0.772,3.104 0.772,3.104c-0,0 0.475,-2.066 0.784,-3.104c0.309,-1.038 0.639,-2.101 0.99,-3.188l4.368,-13.362c0.165,-0.451 0.47,-0.837 0.873,-1.105c0.445,-0.3 0.975,-0.455 1.515,-0.442l7.168,0l-11.709,29.795Z" style="fill:#080706;fill-rule:nonzero;"/><path d="M282.151,98.105c-1.495,-0.086 -2.958,0.439 -4.048,1.451c-1.065,1.163 -1.736,2.625 -1.922,4.181l11.266,-0c0.001,-0.699 -0.092,-1.395 -0.277,-2.069c-0.176,-0.652 -0.482,-1.263 -0.902,-1.796c-0.442,-0.546 -1.005,-0.983 -1.646,-1.28c-0.776,-0.344 -1.62,-0.51 -2.471,-0.487m-0.175,-6.149c1.87,-0.022 3.729,0.29 5.488,0.92c1.605,0.578 3.064,1.488 4.28,2.672c1.23,1.22 2.184,2.684 2.8,4.294c0.697,1.843 1.04,3.796 1.008,5.762c0.007,0.547 -0.022,1.094 -0.087,1.638c-0.036,0.353 -0.145,0.695 -0.32,1.005c-0.143,0.238 -0.363,0.422 -0.627,0.518c-0.324,0.105 -0.666,0.152 -1.008,0.142l-17.416,0c0.08,2.019 0.898,3.942 2.3,5.415c1.323,1.151 3.043,1.752 4.805,1.681c0.917,0.019 1.831,-0.107 2.708,-0.373c0.697,-0.224 1.373,-0.502 2.024,-0.834c0.592,-0.305 1.135,-0.582 1.63,-0.832c0.482,-0.246 1.016,-0.374 1.558,-0.373c0.642,-0.037 1.259,0.256 1.631,0.773l2.621,3.191c-0.869,1 -1.885,1.866 -3.014,2.571c-1.042,0.642 -2.156,1.162 -3.32,1.547c-1.107,0.366 -2.249,0.625 -3.407,0.774c-1.076,0.141 -2.161,0.216 -3.248,0.221c-2.03,0.014 -4.047,-0.331 -5.955,-1.02c-1.82,-0.66 -3.477,-1.693 -4.863,-3.032c-1.441,-1.419 -2.562,-3.122 -3.29,-4.999c-0.847,-2.221 -1.258,-4.58 -1.209,-6.953c-0.011,-1.934 0.34,-3.852 1.034,-5.66c1.343,-3.554 4.115,-6.403 7.659,-7.874c1.969,-0.81 4.085,-1.209 6.218,-1.174" style="fill:#080706;fill-rule:nonzero;"/><path d="M323.441,122.671c-1.295,0.024 -2.582,-0.185 -3.8,-0.619c-2.107,-0.747 -3.752,-2.402 -4.469,-4.495c-0.402,-1.155 -0.599,-2.37 -0.582,-3.592l-0,-15.4l-2.563,-0c-0.899,0.036 -1.659,-0.654 -1.696,-1.543c-0.002,-0.069 -0.001,-0.14 0.006,-0.21l0,-3.476l4.805,-0.92l1.776,-7.27c0.197,-0.898 1.057,-1.497 1.98,-1.379l4.724,-0l0,8.705l7.337,0l0,6.093l-7.337,-0l0,14.797c-0.024,0.609 0.155,1.21 0.509,1.71c0.345,0.453 0.897,0.705 1.47,0.674c0.28,0.006 0.56,-0.027 0.83,-0.1c0.202,-0.058 0.397,-0.135 0.583,-0.23c0.164,-0.087 0.321,-0.162 0.465,-0.229c0.161,-0.071 0.335,-0.105 0.511,-0.102c0.233,-0.011 0.464,0.055 0.655,0.188c0.202,0.167 0.374,0.366 0.51,0.588l2.736,4.224c-1.184,0.871 -2.515,1.528 -3.931,1.94c-1.466,0.433 -2.989,0.651 -4.519,0.646" style="fill:#080706;fill-rule:nonzero;"/><path d="M336.02,122.211l0,-43.014l9.028,-0l-0,15.833c1.065,-0.907 2.256,-1.656 3.539,-2.226c1.44,-0.599 2.993,-0.887 4.556,-0.848c1.505,-0.028 3,0.26 4.383,0.848c1.237,0.539 2.337,1.344 3.218,2.355c0.898,1.053 1.573,2.275 1.98,3.591c0.459,1.468 0.686,2.996 0.672,4.531l0,18.93l-9.027,-0l0,-18.934c0.075,-1.218 -0.285,-2.422 -1.019,-3.405c-0.752,-0.846 -1.861,-1.298 -2.999,-1.221c-0.97,-0.004 -1.929,0.211 -2.8,0.631c-0.911,0.448 -1.754,1.018 -2.505,1.696l0,21.233l-9.026,-0Z" style="fill:#080706;fill-rule:nonzero;"/><path d="M383.194,98.105c-1.494,-0.086 -2.958,0.439 -4.048,1.451c-1.065,1.163 -1.737,2.624 -1.921,4.181l11.268,-0c0.001,-0.699 -0.092,-1.395 -0.277,-2.069c-0.174,-0.652 -0.478,-1.262 -0.896,-1.796c-0.441,-0.546 -1.005,-0.983 -1.645,-1.28c-0.779,-0.345 -1.628,-0.512 -2.481,-0.487m-0.175,-6.149c1.871,-0.022 3.73,0.29 5.488,0.92c1.604,0.577 3.065,1.488 4.28,2.672c1.231,1.22 2.185,2.683 2.8,4.294c0.697,1.843 1.039,3.796 1.008,5.762c0.006,0.547 -0.023,1.094 -0.088,1.638c-0.036,0.353 -0.144,0.695 -0.32,1.005c-0.142,0.238 -0.364,0.421 -0.626,0.518c-0.325,0.105 -0.666,0.152 -1.008,0.142l-17.416,0c0.082,2.019 0.897,3.942 2.3,5.415c1.322,1.15 3.044,1.752 4.805,1.681c0.918,0.019 1.832,-0.107 2.707,-0.373c0.697,-0.224 1.375,-0.502 2.025,-0.834c0.592,-0.305 1.135,-0.582 1.63,-0.832c0.481,-0.246 1.017,-0.374 1.559,-0.373c0.642,-0.037 1.258,0.256 1.631,0.773l2.62,3.191c-0.87,1 -1.886,1.867 -3.015,2.571c-1.041,0.642 -2.156,1.162 -3.319,1.547c-1.108,0.366 -2.249,0.625 -3.407,0.774c-1.077,0.141 -2.162,0.216 -3.248,0.221c-2.031,0.014 -4.048,-0.331 -5.955,-1.02c-1.82,-0.659 -3.479,-1.693 -4.863,-3.032c-1.439,-1.419 -2.56,-3.121 -3.289,-4.995c-0.846,-2.222 -1.257,-4.581 -1.209,-6.954c-0.011,-1.934 0.341,-3.852 1.035,-5.66c1.343,-3.555 4.114,-6.404 7.658,-7.874c1.968,-0.811 4.085,-1.211 6.217,-1.177" style="fill:#080706;fill-rule:nonzero;"/><path d="M443.644,111.053c0.246,0.003 0.489,0.048 0.719,0.134c0.26,0.103 0.495,0.259 0.689,0.459l4.019,4.173c-1.721,2.24 -3.997,4.008 -6.608,5.134c-2.979,1.218 -6.183,1.808 -9.407,1.732c-3.059,0.049 -6.096,-0.52 -8.923,-1.672c-2.538,-1.051 -4.818,-2.626 -6.689,-4.617c-1.867,-2.025 -3.3,-4.4 -4.214,-6.985c-1,-2.819 -1.495,-5.788 -1.465,-8.775c-0.035,-3.035 0.536,-6.047 1.68,-8.864c1.067,-2.615 2.664,-4.986 4.694,-6.97c2.065,-1.988 4.519,-3.539 7.213,-4.557c2.958,-1.113 6.102,-1.665 9.267,-1.627c1.556,-0.008 3.108,0.136 4.635,0.429c1.388,0.268 2.749,0.665 4.064,1.183c1.22,0.482 2.384,1.087 3.479,1.805c1.022,0.67 1.969,1.449 2.82,2.321l-3.421,4.53c-0.226,0.283 -0.488,0.536 -0.778,0.755c-0.371,0.247 -0.813,0.367 -1.26,0.341c-0.354,0.001 -0.703,-0.08 -1.02,-0.237c-0.35,-0.175 -0.69,-0.368 -1.021,-0.577c-0.359,-0.226 -0.754,-0.473 -1.183,-0.74c-0.487,-0.293 -0.998,-0.541 -1.53,-0.739c-0.672,-0.25 -1.364,-0.444 -2.07,-0.578c-0.915,-0.168 -1.845,-0.248 -2.775,-0.237c-1.73,-0.022 -3.444,0.306 -5.04,0.963c-1.493,0.623 -2.829,1.562 -3.914,2.751c-1.132,1.264 -1.998,2.739 -2.549,4.337c-0.633,1.837 -0.944,3.769 -0.916,5.711c-0.033,2 0.277,3.99 0.916,5.889c0.536,1.59 1.379,3.063 2.485,4.336c1.012,1.147 2.265,2.061 3.674,2.679c1.417,0.615 2.95,0.928 4.499,0.917c0.841,0.005 1.682,-0.04 2.519,-0.132c0.719,-0.081 1.428,-0.235 2.115,-0.459c0.648,-0.217 1.271,-0.5 1.86,-0.844c0.633,-0.376 1.23,-0.806 1.784,-1.287c0.238,-0.195 0.502,-0.36 0.784,-0.488c0.271,-0.127 0.568,-0.194 0.868,-0.194" style="fill:#080706;fill-rule:nonzero;"/><path d="M453.706,122.211l-0,-43.014l9.027,-0l-0,15.833c1.065,-0.907 2.257,-1.656 3.538,-2.226c1.441,-0.598 2.995,-0.887 4.557,-0.848c1.505,-0.028 2.999,0.26 4.383,0.848c1.236,0.539 2.336,1.344 3.217,2.355c0.898,1.053 1.573,2.275 1.98,3.591c0.46,1.468 0.686,2.996 0.672,4.531l0,18.93l-9.026,-0l0,-18.934c0.076,-1.218 -0.285,-2.422 -1.019,-3.405c-0.752,-0.849 -1.862,-1.302 -3.002,-1.225c-0.97,-0.006 -1.929,0.211 -2.8,0.631c-0.911,0.447 -1.754,1.017 -2.505,1.696l0,21.237l-9.022,-0Z" style="fill:#080706;fill-rule:nonzero;"/><path d="M497.325,122.211l-9.027,-0l0,-29.795l9.027,0l0,29.795Zm1.049,-37.956c0.004,0.69 -0.145,1.372 -0.437,1.997c-0.288,0.617 -0.693,1.173 -1.194,1.638c-0.514,0.476 -1.112,0.856 -1.764,1.122c-0.678,0.278 -1.406,0.419 -2.14,0.415c-0.712,0.006 -1.415,-0.136 -2.067,-0.415c-0.631,-0.271 -1.208,-0.651 -1.703,-1.122c-0.493,-0.465 -0.89,-1.022 -1.165,-1.638c-0.283,-0.629 -0.427,-1.309 -0.422,-1.997c-0.006,-0.702 0.138,-1.396 0.422,-2.039c0.275,-0.624 0.671,-1.191 1.165,-1.667c0.49,-0.477 1.068,-0.857 1.703,-1.12c0.654,-0.272 1.358,-0.409 2.067,-0.403c0.733,-0.005 1.46,0.133 2.14,0.403c1.315,0.516 2.374,1.515 2.957,2.787c0.293,0.641 0.443,1.336 0.438,2.039" style="fill:#080706;fill-rule:nonzero;"/><rect x="505.536" y="79.197" width="9.028" height="43.014" style="fill:#080706;"/><path d="M534.189,115.833c0.602,0.006 1.204,-0.057 1.792,-0.187c0.51,-0.116 1.003,-0.295 1.469,-0.531c0.456,-0.237 0.882,-0.526 1.267,-0.863c0.424,-0.372 0.819,-0.775 1.18,-1.206l0,-12.642c-0.609,-0.685 -1.372,-1.221 -2.227,-1.566c-0.796,-0.297 -1.64,-0.448 -2.491,-0.442c-0.794,-0.009 -1.58,0.159 -2.301,0.489c-0.734,0.356 -1.363,0.897 -1.82,1.566c-0.573,0.852 -0.983,1.802 -1.208,2.801c-0.314,1.367 -0.46,2.764 -0.436,4.166c-0.022,1.33 0.094,2.66 0.349,3.966c0.172,0.915 0.501,1.793 0.975,2.599c0.356,0.602 0.875,1.095 1.5,1.422c0.607,0.292 1.275,0.439 1.951,0.428m9.143,6.378c-0.497,0.017 -0.989,-0.112 -1.411,-0.373c-0.393,-0.268 -0.677,-0.666 -0.801,-1.122l-0.699,-2.268c-0.588,0.619 -1.22,1.194 -1.893,1.723c-0.663,0.519 -1.381,0.968 -2.141,1.336c-0.788,0.381 -1.619,0.67 -2.475,0.863c-0.941,0.207 -1.903,0.308 -2.867,0.301c-1.52,0.013 -3.019,-0.343 -4.368,-1.035c-1.373,-0.717 -2.559,-1.738 -3.464,-2.984c-1.043,-1.449 -1.817,-3.069 -2.286,-4.784c-0.582,-2.101 -0.862,-4.272 -0.831,-6.45c-0.018,-2.099 0.297,-4.186 0.932,-6.189c0.561,-1.793 1.455,-3.469 2.636,-4.941c1.108,-1.367 2.503,-2.479 4.09,-3.262c1.639,-0.796 3.446,-1.199 5.271,-1.177c1.349,-0.036 2.69,0.194 3.947,0.674c1.061,0.44 2.047,1.037 2.926,1.768l0,-15.094l9.027,-0l0,43.014l-5.593,-0Z" style="fill:#080706;fill-rule:nonzero;"/><path d="M556.145,122.211l-0,-29.795l5.361,0c0.377,-0.009 0.753,0.028 1.12,0.111c0.276,0.064 0.534,0.185 0.757,0.358c0.21,0.172 0.37,0.394 0.466,0.646c0.121,0.317 0.213,0.644 0.277,0.978l0.494,2.786c0.979,-1.548 2.243,-2.903 3.727,-3.993c1.306,-0.953 2.89,-1.467 4.515,-1.465c1.187,-0.059 2.358,0.286 3.319,0.976l-1.166,6.552c-0.038,0.331 -0.205,0.635 -0.465,0.848c-0.278,0.174 -0.604,0.259 -0.932,0.243c-0.392,-0.007 -0.782,-0.05 -1.165,-0.129c-0.557,-0.096 -1.122,-0.139 -1.688,-0.13c-2.37,0 -4.233,1.245 -5.592,3.735l0,18.279l-9.028,-0Z" style="fill:#080706;fill-rule:nonzero;"/><path d="M592.719,98.105c-1.494,-0.086 -2.958,0.439 -4.048,1.451c-1.065,1.163 -1.737,2.624 -1.922,4.181l11.269,-0c0.001,-0.699 -0.092,-1.395 -0.278,-2.069c-0.175,-0.652 -0.482,-1.263 -0.902,-1.796c-0.441,-0.546 -1.004,-0.983 -1.645,-1.28c-0.777,-0.344 -1.623,-0.511 -2.474,-0.487m-0.175,-6.149c1.871,-0.022 3.73,0.29 5.488,0.92c1.604,0.577 3.064,1.488 4.28,2.672c1.229,1.22 2.185,2.684 2.8,4.294c0.697,1.843 1.039,3.796 1.008,5.762c0.006,0.547 -0.023,1.094 -0.088,1.638c-0.036,0.353 -0.144,0.695 -0.32,1.005c-0.142,0.238 -0.363,0.422 -0.626,0.518c-0.325,0.105 -0.667,0.152 -1.008,0.142l-17.416,0c0.081,2.019 0.898,3.942 2.301,5.415c1.322,1.151 3.044,1.752 4.804,1.681c0.918,0.019 1.831,-0.107 2.708,-0.373c0.697,-0.224 1.373,-0.502 2.024,-0.834c0.593,-0.305 1.136,-0.582 1.63,-0.832c0.481,-0.246 1.017,-0.373 1.559,-0.373c0.643,-0.037 1.259,0.256 1.63,0.773l2.621,3.191c-0.87,1 -1.886,1.867 -3.015,2.571c-1.04,0.642 -2.155,1.162 -3.318,1.547c-1.108,0.366 -2.249,0.625 -3.407,0.774c-1.077,0.141 -2.162,0.216 -3.248,0.221c-2.031,0.014 -4.048,-0.331 -5.955,-1.02c-1.82,-0.659 -3.479,-1.693 -4.863,-3.032c-1.44,-1.42 -2.563,-3.123 -3.292,-4.999c-0.845,-2.221 -1.255,-4.58 -1.208,-6.953c-0.011,-1.934 0.34,-3.852 1.035,-5.66c1.344,-3.554 4.114,-6.403 7.658,-7.874c1.969,-0.81 4.086,-1.209 6.218,-1.174" style="fill:#080706;fill-rule:nonzero;"/><path d="M611.878,122.211l0,-29.795l5.591,0c0.498,-0.018 0.989,0.112 1.411,0.373c0.394,0.268 0.677,0.666 0.801,1.121l0.524,1.724c0.575,-0.529 1.178,-1.028 1.806,-1.494c0.62,-0.459 1.289,-0.85 1.996,-1.165c0.738,-0.326 1.508,-0.575 2.299,-0.746c0.885,-0.189 1.789,-0.279 2.695,-0.273c1.505,-0.028 2.999,0.26 4.382,0.848c1.237,0.539 2.335,1.344 3.218,2.355c0.899,1.053 1.572,2.274 1.979,3.591c0.459,1.468 0.686,2.996 0.672,4.531l-0,18.93l-9.027,-0l-0,-18.934c0.075,-1.218 -0.286,-2.422 -1.019,-3.405c-0.752,-0.846 -1.861,-1.297 -2.999,-1.221c-0.97,-0.004 -1.928,0.211 -2.8,0.631c-0.91,0.448 -1.753,1.019 -2.504,1.696l0,21.233l-9.025,-0Z" style="fill:#080706;fill-rule:nonzero;"/><path d="M125.842,65.345c-12.692,12.586 -24.656,19.412 -35.542,20.223c-8.374,0.622 -17.248,-1.838 -26.368,-7.324c-6.067,-3.796 -11.709,-8.215 -16.833,-13.185l-0.355,-0.331c6.247,-6.587 14.153,-11.424 22.911,-14.017l0,-0.006l0.007,0l-0.009,0c-0.936,3.481 -1.115,7.119 -0.526,10.673c0.888,6.277 4.246,11.958 9.346,15.81c7.138,5.502 17.444,4.253 23.02,-2.789c0.227,-0.288 0.445,-0.582 0.652,-0.883c3.657,-5.211 5.087,-11.633 3.98,-17.875c-0.19,-1.196 -0.463,-2.377 -0.816,-3.537c6.376,2.404 12.27,5.904 17.408,10.339c1.057,0.909 2.103,1.878 3.12,2.893l0.005,0.009Zm-59.879,50.541c-2.198,11.194 -2.703,22.648 -1.498,33.987l-0.005,-0.005c-4.298,-2.146 -8.309,-4.809 -11.945,-7.926c-9.858,-8.436 -16.503,-19.938 -18.837,-32.606c-2.19,-11.849 -0.18,-24.08 5.693,-34.639c2.223,2.292 4.909,4.924 7.728,7.677c6.887,6.733 14.694,14.366 18.491,19.799c2.2,3.145 1.514,7.123 0.375,13.717m73.271,-48.198c5.344,-6.228 7.712,-9.106 7.199,-10.678c-0.679,-1.432 -1.961,-2.498 -3.507,-2.916c-2.016,-0.751 -4.773,-1.099 -6.16,-0.296c-1.112,0.937 -2.126,1.982 -3.024,3.121l-1.688,1.878c-1.075,-1.085 -2.223,-2.163 -3.346,-3.126c-8.192,-7.036 -18.238,-11.634 -28.973,-13.261c-4.347,-4.559 -10.017,-6.675 -15.597,-5.813c-4.833,0.827 -9.073,3.662 -11.641,7.786c-11.043,3.34 -20.973,9.548 -28.752,17.972l-0,-0.006c-1.757,-0.519 -5.611,0.154 -8.023,1.458c-1.143,0.467 -2.009,1.423 -2.351,2.597c-0.133,0.738 0.17,1.894 3.174,5.275c-7.701,12.039 -11.017,26.308 -9.399,40.455c1.626,14.15 8.54,27.195 19.39,36.586c3.798,3.267 8.016,6.025 12.544,8.204c21.013,10.013 45.68,9.154 65.925,-2.3l0.025,-0.017c1.646,-0.942 2.261,-2.987 1.402,-4.663l-0.243,-0.542c-3.32,-7.341 -13.421,-29.682 -7.795,-50.061c2.352,-8.53 9.138,-17.614 15.001,-24.742c6.244,9.549 9.374,20.757 8.97,32.114c-0.372,10.382 -3.955,20.403 -10.268,28.717c-0.285,0.344 -0.355,0.815 -0.184,1.225l0.641,1.473c0.282,0.604 1.007,0.868 1.619,0.59c0.171,-0.078 0.321,-0.193 0.438,-0.336c16.582,-20.747 18.567,-49.302 4.623,-70.694" style="fill:#dd2927;fill-rule:nonzero;"/></g></svg>